<svg width="16" height="16" viewBox="0 0 16 16" fill="none" xmlns="http://www.w3.org/2000/svg">
<path d="M7.66339 1.80925C7.8011 1.53022 8.19899 1.53022 8.3367 1.80925L10.1194 5.42133C10.1741 5.53213 10.2798 5.60893 10.402 5.6267L14.3882 6.20593C14.6961 6.25067 14.8191 6.62909 14.5963 6.84628L11.7119 9.6579C11.6234 9.74414 11.583 9.86841 11.6039 9.99019L12.2848 13.9603C12.3374 14.2669 12.0155 14.5008 11.7401 14.356L8.17475 12.4816C8.06538 12.4241 7.93472 12.4241 7.82535 12.4816L4.26001 14.356C3.98459 14.5008 3.66269 14.2669 3.71529 13.9603L4.39621 9.99019C4.4171 9.86841 4.37672 9.74414 4.28824 9.6579L1.40382 6.84628C1.181 6.62909 1.30396 6.25067 1.61189 6.20593L5.59806 5.6267C5.72033 5.60893 5.82604 5.53213 5.88073 5.42133L7.66339 1.80925Z" fill="#171717" stroke="#171717" stroke-width="1.2" stroke-linejoin="round"/>
</svg>
