<svg width="15" height="14" viewBox="0 0 15 14" fill="none" xmlns="http://www.w3.org/2000/svg">
<path d="M6.97394 0.809248C7.11165 0.530218 7.50954 0.530218 7.64725 0.809248L9.42992 4.42133C9.4846 4.53213 9.59031 4.60893 9.71259 4.6267L13.6988 5.20593C14.0067 5.25067 14.1296 5.62909 13.9068 5.84628L11.0224 8.6579C10.9339 8.74414 10.8935 8.86841 10.9144 8.99019L11.5954 12.9603C11.648 13.2669 11.3261 13.5008 11.0506 13.356L7.48529 11.4816C7.37593 11.4241 7.24527 11.4241 7.1359 11.4816L3.57056 13.356C3.29514 13.5008 2.97324 13.2669 3.02584 12.9603L3.70676 8.99019C3.72765 8.86841 3.68727 8.74414 3.59879 8.6579L0.714369 5.84628C0.49155 5.62909 0.614504 5.25067 0.922433 5.20593L4.9086 4.6267C5.03088 4.60893 5.13659 4.53213 5.19127 4.42133L6.97394 0.809248Z" fill="#767676" stroke="#767676" stroke-width="1.2" stroke-linejoin="round"/>
</svg>
